<svg width="46" height="46" viewBox="0 0 46 46" fill="none" xmlns="http://www.w3.org/2000/svg">
<path d="M16.9989 0C26.3723 0 33.9978 7.626 33.9978 17V37C33.9978 39.757 31.7549 42 28.9981 42C26.2413 42 23.9984 39.757 23.9984 37C23.9984 35.346 22.6525 34 20.9986 34C19.3448 34 17.9988 35.346 17.9988 37C17.9988 41.963 13.9621 46 8.99942 46C4.03674 46 0 41.963 0 37V17C0 7.626 7.62551 0 16.9989 0ZM1.99987 37C1.99987 40.859 5.14067 44 8.99942 44C12.8582 44 15.999 40.859 15.999 37C15.999 34.243 18.2418 32 20.9986 32C23.7555 32 25.9983 34.243 25.9983 37C25.9983 38.654 27.3442 40 28.9981 40C30.652 40 31.9979 38.654 31.9979 37V17C31.9979 8.729 25.2694 2 16.9989 2C8.72844 2 1.99987 8.729 1.99987 17V37Z" fill="#1A1A1A"/>
<path d="M37.2696 2.573L38.3925 1.047C42.8002 2.447 46.6 8.334 45.921 12.71C45.703 14.117 45.0331 15.207 44.0012 15.939L45.0041 21.96L42.9142 46H39.0805L36.9906 21.961L37.9285 16.333C37.3726 15.964 36.9076 15.454 36.5716 14.811C35.5947 12.937 35.8697 10.431 37.2706 8.427C38.4985 6.67 38.9685 5.002 37.2696 2.573ZM40.2644 4.379C40.7134 6.532 39.8434 8.237 38.9095 9.573C37.7976 11.165 37.8246 12.886 38.3465 13.886C38.6095 14.395 39.1435 15 40.1864 15C40.2404 15 40.2864 14.993 40.3384 14.992C41.0023 14.016 41.6093 11.836 40.9154 10.447L42.7042 9.552C43.4322 11.007 43.3172 12.815 42.8382 14.315C43.4412 13.881 43.8132 13.246 43.9432 12.404C44.3131 10.022 42.7092 6.459 40.2644 4.379ZM39.0045 22.039L40.9144 44H41.0803L42.9902 22.039L42.1113 16.768C41.5233 16.913 40.8884 17 40.1864 17C40.0714 17 39.9594 16.986 39.8474 16.979L39.0045 22.039Z" fill="#1A1A1A"/>
<path d="M8.99942 32C11.7562 32 13.9991 34.243 13.9991 37C13.9991 39.757 11.7562 42 8.99942 42C6.2426 42 3.99974 39.757 3.99974 37C3.99974 34.243 6.2426 32 8.99942 32ZM8.99942 40C10.6533 40 11.9992 38.654 11.9992 37C11.9992 35.346 10.6533 34 8.99942 34C7.34552 34 5.99961 35.346 5.99961 37C5.99961 38.654 7.34552 40 8.99942 40Z" fill="#1A1A1A"/>
<path d="M13.9991 24C13.9991 26.757 11.7562 29 8.99942 29C6.2426 29 3.99974 26.757 3.99974 24C3.99974 21.243 6.2426 19 8.99942 19C11.7562 19 13.9991 21.243 13.9991 24ZM5.99961 24C5.99961 25.654 7.34552 27 8.99942 27C10.6533 27 11.9992 25.654 11.9992 24C11.9992 22.346 10.6533 21 8.99942 21C7.34552 21 5.99961 22.346 5.99961 24Z" fill="#1A1A1A"/>
<path d="M24.9984 12H25.9983V30H24.9984C20.0357 30 15.999 25.963 15.999 21C15.999 16.037 20.0357 12 24.9984 12ZM23.9984 27.929V14.071C20.6107 14.557 17.9988 17.479 17.9988 21C17.9988 24.521 20.6107 27.442 23.9984 27.929Z" fill="#1A1A1A"/>
<path d="M9.99935 8C12.2052 8 13.9991 9.794 13.9991 12C13.9991 14.206 12.2052 16 9.99935 16C7.7935 16 5.99961 14.206 5.99961 12C5.99961 9.794 7.7935 8 9.99935 8ZM9.99935 14C11.1023 14 11.9992 13.103 11.9992 12C11.9992 10.897 11.1023 10 9.99935 10C8.89642 10 7.99948 10.897 7.99948 12C7.99948 13.103 8.89642 14 9.99935 14Z" fill="#1A1A1A"/>
<path d="M18.9988 4C20.6527 4 21.9986 5.346 21.9986 7C21.9986 8.654 20.6527 10 18.9988 10C17.3449 10 15.999 8.654 15.999 7C15.999 5.346 17.3449 4 18.9988 4ZM18.9988 8C19.5507 8 19.9987 7.552 19.9987 7C19.9987 6.448 19.5507 6 18.9988 6C18.4468 6 17.9988 6.448 17.9988 7C17.9988 7.552 18.4468 8 18.9988 8Z" fill="#1A1A1A"/>
</svg>
