<svg width="48" height="48" viewBox="0 0 48 48" fill="none" xmlns="http://www.w3.org/2000/svg">
<path d="M45.913 36.1601L32.694 23.293C32.6113 23.2118 32.5128 23.1473 32.4044 23.1033C32.2959 23.0593 32.1795 23.0367 32.062 23.0367C31.9445 23.0367 31.8282 23.0593 31.7197 23.1033C31.6112 23.1473 31.5128 23.2118 31.43 23.293L30.1749 24.5234L27.7536 22.1666L31.9196 18.1028C32.4028 18.1747 32.8907 18.2124 33.3795 18.2154C35.35 18.2194 37.2706 17.6124 38.8629 16.4825C40.4637 15.3477 41.6558 13.7503 42.2696 11.9176C42.8833 10.0849 42.8874 8.11047 42.2812 6.27542C42.2335 6.13471 42.1495 6.00826 42.0373 5.90814C41.9251 5.80802 41.7884 5.73758 41.6402 5.70355C41.4926 5.66845 41.3382 5.67073 41.1917 5.71017C41.0453 5.7496 40.9116 5.82488 40.8035 5.92883L35.4625 11.1277C35.3401 11.2342 35.1816 11.2932 35.0174 11.2932C34.8532 11.2932 34.6947 11.2342 34.5723 11.1277L31.3054 7.94772C31.1901 7.83142 31.1256 7.67611 31.1256 7.51448C31.1256 7.35286 31.1901 7.19754 31.3054 7.08124L36.6464 1.8824C36.7532 1.77716 36.8305 1.64706 36.871 1.50448C36.9115 1.36191 36.9139 1.21162 36.8778 1.06791C36.8429 0.923708 36.7705 0.790637 36.6676 0.681415C36.5648 0.572193 36.4349 0.49047 36.2903 0.444054C34.8435 -0.0121585 33.3043 -0.118831 31.8056 0.133241C30.307 0.385313 28.8938 0.988559 27.6881 1.89092C26.4825 2.79328 25.5205 3.96766 24.8852 5.31271C24.2499 6.65775 23.9604 8.13307 24.0416 9.61135C24.0416 9.92328 24.095 10.2179 24.1395 10.5211L18.7006 15.798L15.8877 13.0686L15.309 10.2612C15.283 10.1318 15.2269 10.0099 15.1452 9.90484C15.0634 9.79973 14.9581 9.71417 14.8373 9.65467L9.7989 7.20255C9.632 7.12238 9.44348 7.09515 9.25986 7.12468C9.07623 7.15421 8.90674 7.23902 8.7752 7.36718L6.23822 9.8193C6.10655 9.94734 6.01942 10.1123 5.98908 10.2911C5.95875 10.4698 5.98673 10.6533 6.06909 10.8157L8.58827 15.72C8.64939 15.8376 8.7373 15.9402 8.84528 16.0197C8.95326 16.0993 9.07847 16.1539 9.21138 16.1792L12.0955 16.7424L14.8996 19.4718L10.7959 23.4576C9.21614 23.2163 7.5992 23.3735 6.09971 23.9142C4.60022 24.455 3.26833 25.3611 2.23142 26.5461C1.1945 27.731 0.487242 29.155 0.177277 30.682C-0.132687 32.209 -0.03499 33.7879 0.461025 35.2676C0.508711 35.4084 0.592668 35.5348 0.704877 35.6349C0.817086 35.735 0.953796 35.8055 1.10195 35.8395C1.24958 35.8746 1.40398 35.8723 1.55045 35.8329C1.69693 35.7935 1.83059 35.7182 1.93871 35.6142L7.27972 30.4154C7.40212 30.3088 7.56058 30.2499 7.7248 30.2499C7.88902 30.2499 8.04748 30.3088 8.16989 30.4154L11.4368 33.5953C11.5521 33.7116 11.6166 33.867 11.6166 34.0286C11.6166 34.1902 11.5521 34.3455 11.4368 34.4618L6.09579 39.6607C5.989 39.7659 5.91166 39.896 5.87115 40.0386C5.83063 40.1812 5.82829 40.3314 5.86435 40.4752C5.89931 40.6194 5.97167 40.7524 6.07453 40.8616C6.17739 40.9709 6.3073 41.0526 6.45186 41.099C7.89723 41.5546 9.4347 41.6614 10.9319 41.4101C12.429 41.1589 13.841 40.5573 15.0463 39.6569C16.2515 38.7566 17.2139 37.5846 17.8505 36.2419C18.4871 34.8991 18.7788 33.4259 18.7006 31.949C18.6819 31.6585 18.6462 31.3692 18.5938 31.0826L21.4245 28.3359L23.8458 30.6927L22.6173 31.8711C22.5339 31.9516 22.4677 32.0474 22.4225 32.153C22.3773 32.2586 22.354 32.3719 22.354 32.4863C22.354 32.6006 22.3773 32.7139 22.4225 32.8195C22.4677 32.9251 22.5339 33.0209 22.6173 33.1015L35.8363 45.9686C37.1726 47.2693 38.9849 48 40.8747 48C42.7644 48 44.5768 47.2693 45.913 45.9686C47.2493 44.6679 48 42.9038 48 41.0644C48 39.2249 47.2493 37.4608 45.913 36.1601ZM32.0531 25.1126L44.0259 36.7753L40.8747 39.8426L28.9108 28.1972L32.0531 25.1126ZM27.9939 3.88396C29.4091 2.50164 31.3301 1.72255 33.335 1.71777C33.6166 1.70051 33.899 1.70051 34.1806 1.71777L30.0057 5.84219C29.5502 6.28577 29.2943 6.88729 29.2943 7.51448C29.2943 8.14167 29.5502 8.74319 30.0057 9.18678L33.2816 12.3754C33.7449 12.8045 34.36 13.0438 34.9996 13.0438C35.6391 13.0438 36.2542 12.8045 36.7176 12.3754L40.9548 8.29431C41.1199 9.74363 40.8409 11.2081 40.1528 12.5034C39.4648 13.7987 38.3985 14.8669 37.0881 15.5737C35.7777 16.2804 34.2819 16.5941 32.7888 16.4752C31.2957 16.3563 29.8721 15.8102 28.6972 14.9055C27.8553 14.2609 27.1628 13.4504 26.6652 12.5272C26.1675 11.6039 25.8759 10.5887 25.8095 9.54804C25.7432 8.50742 25.9034 7.46488 26.2799 6.48877C26.6563 5.51265 27.2404 4.62499 27.9939 3.88396ZM24.6469 12.4447C25.2545 13.9387 26.2516 15.2527 27.54 16.2572C28.266 16.8125 29.073 17.2594 29.9345 17.5829L25.2344 22.1666L19.9468 17.0197L24.6469 12.4447ZM23.9704 23.3796L22.7152 24.6013L13.8136 15.9366L15.0687 14.7149L23.9704 23.3796ZM7.94734 10.5905L9.55855 9.02215L13.6355 11.0064L14.0806 13.1986L12.238 14.9922L9.98583 14.5589L7.94734 10.5905ZM14.7482 37.6764C13.9407 38.464 12.961 39.064 11.8821 39.4315C10.8031 39.7991 9.65286 39.9248 8.51705 39.7993L12.7097 35.7182C13.1653 35.2746 13.4212 34.6731 13.4212 34.0459C13.4212 33.4187 13.1653 32.8172 12.7097 32.3736L9.46063 29.185C8.99727 28.7559 8.38217 28.5166 7.74261 28.5166C7.10304 28.5166 6.48794 28.7559 6.02458 29.185L1.83188 33.2661C1.6668 31.8168 1.94584 30.3523 2.63389 29.057C3.32193 27.7617 4.38824 26.6935 5.6986 25.9867C7.00896 25.28 8.50482 24.9663 9.9979 25.0852C11.491 25.2041 12.9146 25.7502 14.0895 26.6549C14.9284 27.3027 15.6172 28.1157 16.1108 29.0406C16.6045 29.9656 16.8918 30.9816 16.954 32.0221C17.0162 33.0626 16.8518 34.1042 16.4717 35.0787C16.0916 36.0531 15.5043 36.9383 14.7482 37.6764ZM15.2022 25.3032C14.4762 24.7478 13.6691 24.301 12.8077 23.9775L16.1725 20.6936L21.4601 25.8404L18.0953 29.1157C17.4877 27.6217 16.4905 26.3077 15.2022 25.3032ZM22.7152 27.0361L26.4896 23.3796L28.9108 25.7364L25.1365 29.4449L22.7152 27.0361ZM24.4956 32.4603L27.6557 29.4449L39.6196 41.0644L36.504 44.175L24.4956 32.4603ZM44.649 44.7382C43.7567 45.6017 42.5797 46.1309 41.3258 46.2323C40.0718 46.3338 38.8213 46.001 37.7947 45.2927L45.2187 38.1097C45.9346 39.1052 46.2695 40.3133 46.1655 41.5242C46.0614 42.7351 45.5248 43.8723 44.649 44.7382Z" fill="#1A1A1A"/>
</svg>
