<svg width="40" height="33" viewBox="0 0 40 33" fill="none" xmlns="http://www.w3.org/2000/svg">
<path d="M12.6222 29.5833H12.8284L12.8676 29.3809L16.7728 9.2142L16.8304 8.91667H16.5274H8.91631H8.71008L8.67087 9.11914L4.76564 29.2858L4.70802 29.5833H5.01108H12.6222ZM27.6923 3.41667H27.4423V3.66667V29.3333V29.5833H27.6923H36.9231H37.1731V29.3333V3.66667V3.41667H36.9231H27.6923ZM15.3846 3.41667H15.1346V3.66667V5.5V5.75H15.3846H20.0926L15.5349 29.2858L15.4773 29.5833H15.7803H24.6154H24.8654V29.3333V3.66667V3.41667H24.6154H15.3846ZM3.07692 3.41667H2.82692V3.66667V23.0127L3.32236 23.0603L6.67454 5.75H12.3077H12.5577V5.5V3.66667V3.41667H12.3077H3.07692ZM39.75 0.25V32.75H0.25V0.25H39.75Z" fill="#1A1A1A" stroke="#F9F9F9" stroke-width="0.5"/>
</svg>
