<svg width="46" height="46" viewBox="0 0 46 46" fill="none" xmlns="http://www.w3.org/2000/svg">
<path d="M45.4909 8.0379L36.9733 2.32421C34.8022 0.823158 32.0186 0 29.2351 0H28.5671C27.8433 0 27.2866 0.484211 27.2866 1.11368C27.2866 3.14737 25.3938 4.84211 23.0557 4.84211C20.7175 4.84211 18.769 3.14737 18.769 1.11368C18.769 0.484211 18.2123 0 17.4886 0H16.7649C13.9814 0 11.2535 0.823158 9.02667 2.27579L0.50906 8.0379C-0.0476463 8.37684 -0.158988 9.05474 0.230707 9.53895L5.24107 15.8337C5.46375 16.0758 5.7421 16.2695 6.1318 16.3179C6.46582 16.3663 6.85551 16.2695 7.13387 16.0758L11.1978 13.1705L10.5298 28.5684L7.6349 44.7411C7.57923 45.08 7.69057 45.3705 7.91326 45.6126C8.13594 45.8547 8.52563 46 8.85966 46H20.6062C21.2185 46 21.7752 45.6126 21.8866 45.08L23 39.2695L24.1134 45.08C24.2248 45.6126 24.7258 46 25.3938 46H37.1403C37.53 46 37.8641 45.8547 38.0867 45.6126C38.3094 45.3705 38.4208 45.0316 38.3651 44.7411L35.4702 28.5684L34.8022 13.1705L38.8105 16.0758C39.0888 16.2695 39.4228 16.3663 39.8125 16.3179C40.1466 16.2695 40.4806 16.1242 40.7033 15.8337L45.7693 9.53895C46.159 9.05474 46.0476 8.42526 45.4909 8.0379ZM26.4516 43.7726L24.9485 35.88C24.8371 35.3474 24.3361 34.96 23.668 34.96H22.2763C21.6639 34.96 21.1072 35.3474 20.9959 35.88L19.4928 43.7726H10.3628L12.8679 29.7789H33.1321L35.6372 43.7726H26.4516ZM39.4228 13.6063L34.2455 9.8779C33.8558 9.58737 33.2991 9.53895 32.8537 9.73263C32.4083 9.92632 32.13 10.3137 32.13 10.7495L32.8537 27.5516H13.0906L13.8143 10.7495C13.8143 10.3137 13.536 9.92632 13.0906 9.73263C12.6453 9.53895 12.0886 9.58737 11.6989 9.8779L6.52149 13.6063L2.95857 9.15158L10.5298 4.01895C12.1999 2.90526 14.204 2.27579 16.2639 2.17895C16.8762 4.93895 19.6598 6.97263 22.9443 6.97263C26.2289 6.97263 29.0124 4.89053 29.6248 2.17895C31.6846 2.27579 33.6888 2.90526 35.3589 4.01895L42.9301 9.10316L39.4228 13.6063Z" fill="#1A1A1A"/>
</svg>
