<svg width="49" height="49" viewBox="0 0 49 49" fill="none" xmlns="http://www.w3.org/2000/svg">
<path d="M45.0182 49H4.18518C3.62094 49 3.16436 48.5433 3.16436 47.9799V23.0782C3.16436 22.7749 3.29994 22.487 3.53321 22.2932L23.9497 5.37183C24.3275 5.05854 24.8738 5.05804 25.2517 5.37034L45.6562 22.214C45.8915 22.4078 46.027 22.6957 46.027 23L46.039 47.9794C46.039 48.2499 45.9313 48.5099 45.7399 48.7011C45.5485 48.8924 45.2893 49 45.0182 49ZM5.20601 46.9598H43.9974L43.9854 23.4812L24.6027 7.48122L5.20601 23.5574V46.9598Z" fill="#1A1A1A"/>
<path d="M27.6642 42.8795C27.394 42.8795 27.1338 42.7725 26.9424 42.5812C26.751 42.3899 26.6433 42.1304 26.6433 41.8595V29.6186C26.6433 29.0552 27.0999 28.5985 27.6642 28.5985H39.9141C40.4783 28.5985 40.9349 29.0552 40.9349 29.6186V41.8425C40.9349 42.4054 40.4783 42.8616 39.9151 42.8626L27.6642 42.8795ZM28.685 30.6386V40.8379L38.8932 40.824V30.6386H28.685Z" fill="#1A1A1A"/>
<path d="M33.7891 42.8795C33.2249 42.8795 32.7683 42.4228 32.7683 41.8595V29.6186C32.7683 29.0552 33.2249 28.5985 33.7891 28.5985C34.3534 28.5985 34.8099 29.0552 34.8099 29.6186V41.8595C34.8099 42.4228 34.3534 42.8795 33.7891 42.8795Z" fill="#1A1A1A"/>
<path d="M39.9141 36.7591H27.6642C27.0999 36.7591 26.6433 36.3023 26.6433 35.739C26.6433 35.1757 27.0999 34.7189 27.6642 34.7189H39.9141C40.4783 34.7189 40.9349 35.1757 40.9349 35.739C40.9349 36.3023 40.4783 36.7591 39.9141 36.7591Z" fill="#1A1A1A"/>
<path d="M46.0998 24.559C45.402 24.559 44.7261 24.3065 44.1987 23.8483L25.0353 7.19731C24.7303 6.93134 24.2697 6.93183 23.9647 7.19681L4.80227 23.8478C3.59502 24.8957 1.76073 24.7687 0.711988 23.5634C0.20357 22.9796 -0.046652 22.233 0.00718036 21.4604C0.0610129 20.6889 0.412918 19.9841 0.997101 19.4761L22.5979 0.706781C23.6825 -0.235594 25.3175 -0.235594 26.4021 0.706781L48.0029 19.4761C48.5871 19.9841 48.939 20.6889 48.9928 21.4604C49.0467 22.233 48.7964 22.9796 48.287 23.5639C47.7377 24.1959 46.9402 24.559 46.0998 24.559ZM24.5 4.96042C25.1699 4.96042 25.8408 5.19302 26.3752 5.65873L45.5376 22.3087C45.8825 22.6065 46.4497 22.5672 46.7468 22.225C46.8983 22.0517 46.9721 21.8305 46.9562 21.6024C46.9402 21.3743 46.8355 21.1656 46.6631 21.0152L25.0623 2.24586C24.7412 1.96793 24.2588 1.96793 23.9377 2.24586L2.33693 21.0152C2.16447 21.1656 2.0598 21.3743 2.04385 21.6024C2.02789 21.8305 2.10167 22.0517 2.2522 22.224C2.56323 22.5806 3.10554 22.6195 3.46243 22.3082L22.6248 5.65823C23.1592 5.19302 23.8291 4.96042 24.5 4.96042Z" fill="#1A1A1A"/>
<path d="M43.9974 18.6991L37.8724 13.377V5.13674C37.8724 4.01157 38.7886 3.09659 39.9141 3.09659H41.9557C43.0812 3.09659 43.9974 4.01157 43.9974 5.13674V18.6991ZM39.9141 12.4476L41.9557 14.2213V5.13674H39.9141V12.4476Z" fill="#1A1A1A"/>
<path d="M24.6017 49H17.4559V41.8595H15.4143V49H8.26848V31.6587C8.26848 29.9712 9.64221 28.5985 11.331 28.5985H21.5402C22.3587 28.5985 23.1273 28.9168 23.7055 29.495C24.2847 30.0733 24.6027 30.8419 24.6017 31.6597V49ZM19.4976 46.9598H22.56V31.6587C22.56 31.3858 22.4544 31.1297 22.262 30.9375C22.0696 30.7447 21.8124 30.6386 21.5402 30.6386H11.331C10.7677 30.6386 10.3101 31.0964 10.3101 31.6587V46.9598H13.3726V41.8595C13.3726 40.7343 14.2888 39.8193 15.4143 39.8193H17.4559C18.5814 39.8193 19.4976 40.7343 19.4976 41.8595V46.9598Z" fill="#1A1A1A"/>
</svg>
