<svg width="52" height="39" viewBox="0 0 52 39" fill="none" xmlns="http://www.w3.org/2000/svg">
<path d="M0.8125 5.64474H8.23481C8.30342 5.4939 8.40136 5.36765 8.51934 5.27791L10.5506 3.73844C10.6769 3.64276 10.8214 3.59218 10.9687 3.59211H15.0312C15.0317 3.04789 15.203 2.52613 15.5077 2.14132C15.8123 1.7565 16.2254 1.54005 16.6562 1.53947H18.5072C18.6487 1.2285 18.8525 0.969987 19.098 0.789853C19.3436 0.609718 19.6223 0.514297 19.9062 0.513158H27.2705C27.3414 0.357524 27.4434 0.228176 27.5663 0.138102C27.6893 0.0480276 27.8288 0.000399192 27.9709 0H45.3492C47.1141 0.0130831 48.8034 0.906556 50.0491 2.48579C51.2948 4.06503 51.996 6.20208 52 8.43143C52.004 10.6608 51.3104 12.8018 50.0703 14.3881C48.8302 15.9744 47.1442 16.8775 45.3793 16.9006L47.0972 35.5419C47.138 35.9752 47.1057 36.4145 47.0026 36.8309C46.8994 37.2473 46.7276 37.6315 46.4986 37.9581C46.2695 38.2847 45.9884 38.5463 45.6736 38.7259C45.3587 38.9055 45.0174 38.9989 44.672 39H37.9685C37.6208 38.9989 37.2773 38.9042 36.9609 38.7224C36.6445 38.5406 36.3623 38.2757 36.1332 37.9455C35.904 37.6152 35.7332 37.2271 35.632 36.807C35.5309 36.3869 35.5017 35.9444 35.5464 35.5089L36.4827 26.2224L34.3654 23.5303C34.2142 23.338 34.1294 23.078 34.1293 22.807V21.0395H31.1551C30.9849 21.0395 30.819 20.9721 30.6808 20.8466C30.5426 20.7211 30.4392 20.5439 30.385 20.3401L29.4237 16.728H26.8168C26.168 16.7252 25.5465 16.3975 25.0887 15.8167C24.631 15.2358 24.3743 14.4494 24.375 13.6298V12.8289H19.9062C19.6223 12.8278 19.3436 12.7324 19.098 12.5523C18.8525 12.3721 18.6487 12.1136 18.5072 11.8026H16.6562C16.2254 11.8021 15.8123 11.5856 15.5077 11.2008C15.203 10.816 15.0317 10.2942 15.0312 9.75H10.9687C10.8214 9.74992 10.6769 9.69935 10.5506 9.60367L8.51934 8.06419C8.40136 7.97446 8.30342 7.84821 8.23481 7.69737H0.8125C0.597012 7.69737 0.39035 7.58924 0.237976 7.39677C0.0856018 7.2043 0 6.94325 0 6.67105C0 6.39886 0.0856018 6.13781 0.237976 5.94534C0.39035 5.75287 0.597012 5.64474 0.8125 5.64474ZM31.7391 18.9868H34.1293V16.728H31.1378L31.7391 18.9868ZM26 13.6298C25.9988 13.9051 26.0841 14.1699 26.2373 14.3659C26.3904 14.5619 26.5988 14.6732 26.8168 14.6754H34.9418C35.1573 14.6754 35.364 14.7835 35.5163 14.976C35.6687 15.1685 35.7543 15.4295 35.7543 15.7017V22.3838L37.9153 25.1315C38.0024 25.2422 38.0683 25.3766 38.1081 25.5244C38.1479 25.6722 38.1605 25.8295 38.145 25.9844L37.1587 35.7682C37.1429 35.9166 37.1526 36.0676 37.1872 36.2108C37.2218 36.354 37.2804 36.4861 37.3591 36.5981C37.4348 36.7083 37.5284 36.7965 37.6336 36.8568C37.7388 36.9171 37.853 36.948 37.9685 36.9474H44.672C44.7867 36.9479 44.9003 36.9174 45.0049 36.8579C45.1095 36.7984 45.2028 36.7112 45.2786 36.6023C45.3572 36.4916 45.4162 36.3608 45.4515 36.2189C45.4868 36.077 45.4976 35.9272 45.4833 35.7795L45.3939 34.8093H43.4687C43.2532 34.8093 43.0466 34.7012 42.8942 34.5087C42.7418 34.3162 42.6562 34.0552 42.6562 33.783C42.6562 33.5108 42.7418 33.2497 42.8942 33.0573C43.0466 32.8648 43.2532 32.7567 43.4687 32.7567H45.2047L44.921 29.6777H43.0625C42.847 29.6777 42.6403 29.5696 42.4879 29.3771C42.3356 29.1846 42.25 28.9236 42.25 28.6514C42.25 28.3792 42.3356 28.1182 42.4879 27.9257C42.6403 27.7332 42.847 27.6251 43.0625 27.6251H44.7318L44.4481 24.5461H42.6562C42.4407 24.5461 42.2341 24.438 42.0817 24.2455C41.9293 24.0531 41.8437 23.792 41.8437 23.5198C41.8437 23.2476 41.9293 22.9866 42.0817 22.7941C42.2341 22.6016 42.4407 22.4935 42.6562 22.4935H44.259L43.9752 19.4146H42.25C42.0345 19.4146 41.8278 19.3064 41.6754 19.114C41.5231 18.9215 41.4375 18.6604 41.4375 18.3882C41.4375 18.116 41.5231 17.855 41.6754 17.6625C41.8278 17.4701 42.0345 17.3619 42.25 17.3619H43.7861L43.6599 15.9931C43.6466 15.8492 43.6575 15.7035 43.692 15.5654C43.7264 15.4272 43.7837 15.2999 43.8599 15.1917C43.9361 15.0836 44.0296 14.997 44.1342 14.9378C44.2389 14.8785 44.3522 14.8479 44.4669 14.848H45.3492C46.6857 14.8349 47.9639 14.1551 48.9053 12.9567C49.8466 11.7583 50.3749 10.1385 50.3749 8.45032C50.3749 6.76209 49.8466 5.14229 48.9053 3.94391C47.9639 2.74554 46.6857 2.06573 45.3492 2.05263H28.7128L28.203 9.10455C28.1856 9.34237 28.1033 9.56515 27.9701 9.7347L26 12.2401V13.6298ZM23.1562 10.7763H24.8605L26.6113 8.55004L27.0436 2.56579H23.1562V10.7763ZM19.9062 10.7763H21.5312V2.56579H19.9062V10.7763ZM16.6562 9.75H18.2812V3.59211H16.6562V9.75ZM10.1355 6.8953L11.1937 7.69737H15.0312V5.64474H11.1937L10.1355 6.4468C10.1632 6.59424 10.1632 6.74787 10.1355 6.8953Z" fill="#1A1A1A"/>
<path d="M35.75 4.10526H43.0625C43.2779 4.10526 43.4846 4.21339 43.637 4.40586C43.7894 4.59833 43.875 4.85938 43.875 5.13158C43.875 5.40377 43.7894 5.66482 43.637 5.85729C43.4846 6.04977 43.2779 6.1579 43.0625 6.1579H35.75C35.5345 6.1579 35.3278 6.04977 35.1754 5.85729C35.0231 5.66482 34.9375 5.40377 34.9375 5.13158C34.9375 4.85938 35.0231 4.59833 35.1754 4.40586C35.3278 4.21339 35.5345 4.10526 35.75 4.10526Z" fill="#1A1A1A"/>
<path d="M35.75 8.21053H43.0625C43.2779 8.21053 43.4846 8.31866 43.637 8.51113C43.7894 8.7036 43.875 8.96465 43.875 9.23684C43.875 9.50904 43.7894 9.77009 43.637 9.96256C43.4846 10.155 43.2779 10.2632 43.0625 10.2632H35.75C35.5345 10.2632 35.3278 10.155 35.1754 9.96256C35.0231 9.77009 34.9375 9.50904 34.9375 9.23684C34.9375 8.96465 35.0231 8.7036 35.1754 8.51113C35.3278 8.31866 35.5345 8.21053 35.75 8.21053Z" fill="#1A1A1A"/>
<path d="M30.0625 10.6909H32.5C32.7155 10.6909 32.9221 10.799 33.0745 10.9915C33.2269 11.1839 33.3125 11.445 33.3125 11.7172C33.3125 11.9894 33.2269 12.2504 33.0745 12.4429C32.9221 12.6354 32.7155 12.7435 32.5 12.7435H30.0625C29.847 12.7435 29.6403 12.6354 29.4879 12.4429C29.3356 12.2504 29.25 11.9894 29.25 11.7172C29.25 11.445 29.3356 11.1839 29.4879 10.9915C29.6403 10.799 29.847 10.6909 30.0625 10.6909Z" fill="#1A1A1A"/>
</svg>
