<svg width="32" height="48" viewBox="0 0 32 48" fill="none" xmlns="http://www.w3.org/2000/svg">
<path d="M28.8089 5.4756C27.4471 3.76279 25.7154 2.38043 23.7434 1.43216C21.7714 0.483875 19.6104 -0.0057264 17.4222 5.05337e-05H14.5778C12.3896 -0.0057264 10.2286 0.483875 8.2566 1.43216C6.28461 2.38043 4.55285 3.76279 3.19114 5.4756C1.1298 8.0621 0.00502371 11.2704 3.50377e-05 14.5778V20.9956C-0.00417279 22.9108 0.37066 24.8079 1.10294 26.5775C1.83521 28.3472 2.91045 29.9544 4.26669 31.3067L8.8889 35.92V40.8889C8.8889 42.7749 9.63811 44.5836 10.9717 45.9172C12.3053 47.2508 14.114 48 16 48C17.886 48 19.6947 47.2508 21.0283 45.9172C22.3619 44.5836 23.1111 42.7749 23.1111 40.8889V35.92L27.7333 31.3067C29.0896 29.9544 30.1648 28.3472 30.8971 26.5775C31.6293 24.8079 32.0042 22.9108 32 20.9956V14.5778C31.995 11.2704 30.8702 8.0621 28.8089 5.4756ZM21.3333 36.4445V38.2222H10.6667V36.4445H21.3333ZM21.3333 40.8889C21.3291 41.1868 21.3024 41.4839 21.2533 41.7778H10.7467C10.6976 41.4839 10.6709 41.1868 10.6667 40.8889V40H21.3333V40.8889ZM16 46.2222C15.0647 46.2213 14.1462 45.9744 13.3364 45.5063C12.5267 45.0383 11.8543 44.3655 11.3867 43.5556H20.6133C20.1457 44.3655 19.4733 45.0383 18.6636 45.5063C17.8538 45.9744 16.9353 46.2213 16 46.2222ZM30.2222 20.9956C30.2265 22.677 29.8972 24.3426 29.2533 25.8959C28.6094 27.4491 27.6638 28.8592 26.4711 30.0445L21.8578 34.6667H10.1422L5.52891 30.0445C4.33624 28.8592 3.39058 27.4491 2.74669 25.8959C2.1028 24.3426 1.77348 22.677 1.77781 20.9956V14.5778C1.78251 11.1845 3.13259 7.93149 5.53203 5.53205C7.93147 3.13261 11.1845 1.78253 14.5778 1.77783H17.4222C20.8155 1.78253 24.0685 3.13261 26.468 5.53205C28.8674 7.93149 30.2175 11.1845 30.2222 14.5778V20.9956Z" fill="#1A1A1A"/>
<path d="M23.1111 14.2223H18.2578L21.2533 7.4756C21.3141 7.34037 21.3401 7.19209 21.3289 7.04425C21.3178 6.89641 21.2698 6.75371 21.1894 6.62914C21.109 6.50457 20.9988 6.40209 20.8686 6.33103C20.7385 6.25996 20.5927 6.22258 20.4444 6.22227H13.3333C13.147 6.22179 12.9652 6.27988 12.8137 6.38835C12.6621 6.49681 12.5485 6.65016 12.4889 6.82671L8.04446 20.16C8.00038 20.2937 7.98868 20.4359 8.01031 20.575C8.03195 20.7141 8.08631 20.8461 8.16891 20.96C8.2507 21.0749 8.35865 21.1687 8.48384 21.2336C8.60904 21.2985 8.74788 21.3327 8.8889 21.3334H14.1333L13.3333 30.1422C13.3238 30.3372 13.3787 30.5299 13.4895 30.6905C13.6004 30.8512 13.761 30.9709 13.9467 31.0311C14.0342 31.071 14.127 31.0979 14.2222 31.1111C14.3765 31.1111 14.5281 31.0709 14.6621 30.9946C14.7961 30.9182 14.908 30.8083 14.9867 30.6756L23.8755 15.5645C23.9556 15.4295 23.9984 15.2758 23.9998 15.1189C24.0012 14.962 23.961 14.8076 23.8833 14.6712C23.8057 14.5349 23.6933 14.4216 23.5577 14.3427C23.4221 14.2638 23.268 14.2223 23.1111 14.2223ZM15.4667 26.3556L16 20.5245C16.0111 20.4012 15.9964 20.277 15.9568 20.1597C15.9171 20.0424 15.8534 19.9348 15.7697 19.8436C15.686 19.7523 15.5842 19.6796 15.4708 19.63C15.3574 19.5804 15.2349 19.5551 15.1111 19.5556H10.1245L13.9733 8.00004H19.0755L16.08 14.7467C16.0192 14.8819 15.9932 15.0302 16.0044 15.178C16.0155 15.3259 16.0635 15.4686 16.1439 15.5932C16.2243 15.7177 16.3346 15.8202 16.4647 15.8913C16.5948 15.9623 16.7406 15.9997 16.8889 16H21.5555L15.4667 26.3556Z" fill="#1A1A1A"/>
</svg>
