<svg width="48" height="48" viewBox="0 0 48 48" fill="none" xmlns="http://www.w3.org/2000/svg">
<path d="M43.9636 39.9593H42.2182L27.9273 2.6893C26.5091 -0.896435 21.3818 -0.896435 19.9636 2.6893L5.78182 39.9593H4.03636C1.85455 39.9593 0 41.8065 0 43.9796C0 46.1528 1.85455 48 4.03636 48H43.9636C46.1455 48 48 46.1528 48 43.9796C48 41.6978 46.1455 39.9593 43.9636 39.9593ZM12.8727 27.4635H35.1273L36.6545 31.3752H11.3455L12.8727 27.4635ZM15.6 20.292H32.4L34.3636 25.2903H13.7455L15.6 20.292ZM18 14.2071H30.1091L31.6364 18.1188H16.4727L18 14.2071ZM22.0364 3.44991C22.6909 1.71137 25.2 1.71137 25.8545 3.44991L29.1273 12.034H18.6545L22.0364 3.44991ZM10.4727 33.657H37.4182L39.8182 39.9593H8.07273L10.4727 33.657ZM43.9636 45.8268H4.03636C3.05455 45.8268 2.18182 44.9576 2.18182 43.9796C2.18182 43.0017 3.05455 42.1324 4.03636 42.1324C21.6 42.1324 13.6364 42.1324 43.9636 42.1324C44.9455 42.1324 45.8182 43.0017 45.8182 43.9796C45.8182 44.9576 44.9455 45.8268 43.9636 45.8268Z" fill="#1A1A1A"/>
</svg>
