<svg width="54" height="52" viewBox="0 0 54 52" fill="none" xmlns="http://www.w3.org/2000/svg">
<path d="M17.7301 45.7687L18.5002 46.263V45.3479V38.4286V38.1555L18.2703 38.0079L4.76965 29.3414L3.99955 28.8471V29.7622V36.6814V36.9546L4.22945 37.1022L17.7301 45.7687ZM49.7699 28.4351L49.9998 28.2875V28.0143V21.0951V20.1799L49.2297 20.6743L22.2297 38.0079L21.9998 38.1555V38.4286V45.3479V46.2631L22.7699 45.7687L49.7699 28.4351ZM19.9799 35.0872L20.25 35.2606L20.5201 35.0872L50.2141 16.0234L50.8695 15.6026L50.214 15.1818L34.0201 4.78703L33.75 4.61365L33.4799 4.78703L3.78664 23.8483L3.13126 24.269L3.7866 24.6898L19.9799 35.0872ZM0.5 21.9396L33.75 0.594165L53.5 13.2732V30.0604L20.25 51.4058L0.5 38.7268V21.9396ZM36.625 10.8335C36.625 11.2036 36.3906 11.6082 35.8664 11.9447C35.3476 12.2777 34.6007 12.5 33.75 12.5C32.8993 12.5 32.1524 12.2777 31.6336 11.9447C31.1094 11.6082 30.875 11.2036 30.875 10.8335C30.875 10.4635 31.1094 10.0589 31.6336 9.72241C32.1524 9.38941 32.8993 9.1671 33.75 9.1671C34.6007 9.1671 35.3476 9.38941 35.8664 9.72241C36.3906 10.0589 36.625 10.4635 36.625 10.8335ZM43.375 15.1665C43.375 15.5368 43.1405 15.9415 42.6163 16.2781C42.0976 16.6112 41.3507 16.8335 40.5 16.8335C39.6493 16.8335 38.9024 16.6112 38.3837 16.2781C37.8595 15.9415 37.625 15.5368 37.625 15.1665C37.625 14.7961 37.8595 14.3914 38.3837 14.0548C38.9024 13.7217 39.6493 13.4993 40.5 13.4993C41.3507 13.4993 42.0976 13.7217 42.6163 14.0548C43.1405 14.3914 43.375 14.7961 43.375 15.1665ZM29.875 15.1665C29.875 15.5368 29.6405 15.9415 29.1163 16.2781C28.5976 16.6112 27.8507 16.8335 27 16.8335C26.1493 16.8335 25.4024 16.6112 24.8837 16.2781C24.3595 15.9415 24.125 15.5368 24.125 15.1665C24.125 14.7961 24.3595 14.3914 24.8837 14.0548C25.4024 13.7217 26.1493 13.4993 27 13.4993C27.8507 13.4993 28.5976 13.7217 29.1163 14.0548C29.6405 14.3914 29.875 14.7961 29.875 15.1665ZM36.625 19.5C36.625 19.8701 36.3906 20.2747 35.8664 20.6111C35.3476 20.9441 34.6007 21.1664 33.75 21.1664C32.8993 21.1664 32.1524 20.9441 31.6336 20.6111C31.1094 20.2747 30.875 19.8701 30.875 19.5C30.875 19.1299 31.1094 18.7253 31.6336 18.3889C32.1524 18.0559 32.8993 17.8335 33.75 17.8335C34.6007 17.8335 35.3476 18.0559 35.8664 18.3889C36.3906 18.7253 36.625 19.1299 36.625 19.5ZM23.125 19.5C23.125 19.8701 22.8906 20.2747 22.3664 20.6111C21.8476 20.9441 21.1007 21.1664 20.25 21.1664C19.3993 21.1664 18.6524 20.9441 18.1336 20.6111C17.6094 20.2747 17.375 19.8701 17.375 19.5C17.375 19.1299 17.6094 18.7253 18.1336 18.3889C18.6524 18.0559 19.3993 17.8335 20.25 17.8335C21.1007 17.8335 21.8476 18.0559 22.3664 18.3889C22.8906 18.7253 23.125 19.1299 23.125 19.5ZM29.875 23.8335C29.875 24.2036 29.6406 24.6082 29.1164 24.9447C28.5976 25.2777 27.8507 25.5 27 25.5C26.1493 25.5 25.4024 25.2777 24.8836 24.9447C24.3594 24.6082 24.125 24.2036 24.125 23.8335C24.125 23.4635 24.3594 23.0589 24.8836 22.7224C25.4024 22.3894 26.1493 22.1671 27 22.1671C27.8507 22.1671 28.5976 22.3894 29.1164 22.7224C29.6406 23.0589 29.875 23.4635 29.875 23.8335ZM16.375 23.8335C16.375 24.2036 16.1406 24.6082 15.6164 24.9447C15.0976 25.2777 14.3507 25.5 13.5 25.5C12.6493 25.5 11.9024 25.2777 11.3836 24.9447C10.8594 24.6082 10.625 24.2036 10.625 23.8335C10.625 23.4635 10.8594 23.0589 11.3836 22.7224C11.9024 22.3894 12.6493 22.1671 13.5 22.1671C14.3507 22.1671 15.0976 22.3894 15.6164 22.7224C16.1406 23.0589 16.375 23.4635 16.375 23.8335ZM23.125 28.1664C23.125 28.5368 22.8905 28.9415 22.3663 29.2781C21.8476 29.6112 21.1007 29.8335 20.25 29.8335C19.3993 29.8335 18.6524 29.6112 18.1337 29.2781C17.6095 28.9415 17.375 28.5368 17.375 28.1664C17.375 27.7961 17.6095 27.3914 18.1337 27.0548C18.6524 26.7217 19.3993 26.4993 20.25 26.4993C21.1007 26.4993 21.8476 26.7217 22.3663 27.0548C22.8905 27.3914 23.125 27.7961 23.125 28.1664Z" fill="#1A1A1A" stroke="#F9F9F9"/>
</svg>
