<svg width="44" height="44" viewBox="0 0 44 44" fill="none" xmlns="http://www.w3.org/2000/svg">
<path d="M9 17.6V17.8H8.8H4.4C2.08459 17.8 0.200001 19.6846 0.200001 22C0.200001 23.4848 0.97506 24.7912 2.1422 25.5394L2.3015 25.6415L2.20835 25.8062C1.86401 26.4151 1.66667 27.119 1.66667 27.8667C1.66667 29.3514 2.44173 30.6578 3.60887 31.406L3.76817 31.5081L3.67502 31.6728C3.33067 32.2818 3.13334 32.9857 3.13334 33.7333C3.13334 35.2181 3.90839 36.5245 5.07553 37.2727L5.23483 37.3748L5.14169 37.5395C4.79734 38.1484 4.6 38.8524 4.6 39.6C4.6 41.9154 6.48459 43.8 8.8 43.8H19.0667C23.4635 43.8 29.3609 43.0102 32.2372 42.5819L32.4667 42.5477V42.7797V43.8H43.8V17.8H32.4667V20.5333V20.7333H32.2667C31.9985 20.7333 31.642 20.65 31.3142 20.5349C30.9864 20.4197 30.6559 20.2619 30.4463 20.094C30.4462 20.094 30.4462 20.094 30.4462 20.094L25.4039 16.0607L25.4038 16.0607C24.5432 15.3719 23.1016 14.8667 22 14.8667H19.1136H18.5972L18.9789 14.5188C20.7385 12.9155 21.8 10.6365 21.8 8.18107C21.8 4.76867 19.7749 1.67827 16.6413 0.306412L16.398 0.2H14.1333V6.7144V6.9144H13.9333H12.4667H12.2667V6.7144V0.2H10.0024L9.7595 0.307548L9.75874 0.307879C6.62511 1.67974 4.6 4.77014 4.6 8.18253C4.6 11.271 6.25964 14.0976 8.90004 15.6228L9 15.6806V15.796V17.6ZM16.6667 3.60947V3.19306L16.9917 3.45336C18.408 4.58763 19.2667 6.31662 19.2667 8.18107C19.2667 10.587 17.8377 12.7678 15.6253 13.7352C15.6253 13.7352 15.6253 13.7352 15.6253 13.7352L14.8667 14.0671V17.6V17.8H14.6667H11.7333H11.5333V17.6V14.0671L10.7747 13.7352L10.7746 13.7352C8.56232 12.7663 7.13333 10.5871 7.13333 8.18107C7.13333 6.31662 7.992 4.58763 9.40831 3.45336L9.73333 3.19306V3.60947V9.44773H16.6667V3.60947ZM35.2 41.2667H35V41.0667V20.5333V20.3333H35.2H41.0667H41.2667V20.5333V41.0667V41.2667H41.0667H35.2ZM7.13333 39.6C7.13333 38.7476 7.77414 38.0441 8.6 37.9452V35.4H7.33333C6.41327 35.4 5.66666 34.6534 5.66666 33.7333C5.66666 32.881 6.30747 32.1775 7.13333 32.0786V29.5333H5.86666C4.94661 29.5333 4.2 28.7867 4.2 27.8667C4.2 27.0143 4.8408 26.3108 5.66666 26.2119V23.6667H4.4C3.47994 23.6667 2.73333 22.9201 2.73333 22C2.73333 21.0799 3.47994 20.3333 4.4 20.3333H17.4V17.6V17.4H17.6H22C22.2682 17.4 22.6247 17.4834 22.9525 17.5985C23.2803 17.7136 23.6108 17.8714 23.8204 18.0393C23.8204 18.0393 23.8205 18.0393 23.8205 18.0394L28.8628 22.0726L28.8628 22.0727C29.7235 22.7614 31.1651 23.2667 32.2667 23.2667H32.4667V23.4667V39.8127V39.9847L32.2965 40.0104C29.7045 40.4019 23.4939 41.2667 19.0667 41.2667H8.8C7.87994 41.2667 7.13333 40.5201 7.13333 39.6Z" fill="#1A1A1A" stroke="#F9F9F9" stroke-width="0.4"/>
</svg>
