<svg width="41" height="53" viewBox="0 0 41 53" fill="none" xmlns="http://www.w3.org/2000/svg">
<mask id="path-1-inside-1" fill="white">
<path d="M6.24914 32.6681C6.24914 32.6681 6.29683 32.7412 6.33498 32.7686C10.3214 36.3141 12.162 38.3702 13.2778 41.5867C12.9126 41.6032 12.5681 41.7539 12.3159 42.0074C12.0636 42.261 11.9231 42.598 11.9235 42.9483V48.8879C11.9235 49.9785 12.3757 51.0244 13.1805 51.7956C13.9853 52.5668 15.0769 53 16.2151 53C17.3533 53 18.4448 52.5668 19.2497 51.7956C20.0545 51.0244 20.5066 49.9785 20.5066 48.8879V42.9483C20.507 42.598 20.3665 42.261 20.1143 42.0074C19.8621 41.7539 19.5176 41.6032 19.1524 41.5867C20.2682 38.3702 22.1088 36.3141 26.0952 32.7686C26.0952 32.7686 26.0952 32.6955 26.181 32.6681C28.1964 30.8077 29.791 28.57 30.8656 26.0941C31.9402 23.6182 32.4719 20.957 32.4276 18.2759C32.4276 8.22414 25.151 0 16.2151 0C7.27912 0 0.00255224 8.22414 0.00255224 18.2759C-0.0417028 20.957 0.489992 23.6182 1.5646 26.0941C2.6392 28.57 4.23375 30.8077 6.24914 32.6681ZM17.6456 48.8879C17.6456 49.2515 17.4949 49.6001 17.2266 49.8572C16.9583 50.1142 16.5945 50.2586 16.2151 50.2586C15.8357 50.2586 15.4718 50.1142 15.2036 49.8572C14.9353 49.6001 14.7846 49.2515 14.7846 48.8879V44.319H17.6456V48.8879ZM16.2151 41.4131C15.672 39.5837 14.8077 37.8563 13.6592 36.305C14.5017 36.4608 15.3571 36.5434 16.2151 36.5517C17.0731 36.5434 17.9285 36.4608 18.7709 36.305C17.6225 37.8563 16.7582 39.5837 16.2151 41.4131ZM16.2151 2.74138C23.5775 2.74138 29.5666 9.71362 29.5666 18.2759C29.5666 26.8381 23.5775 33.8103 16.2151 33.8103C8.85269 33.8103 2.86359 26.8381 2.86359 18.2759C2.86359 9.71362 8.85269 2.74138 16.2151 2.74138Z"/>
<path d="M9.13879 21.1817C9.27118 21.3094 9.4287 21.4107 9.60222 21.4798C9.77573 21.5488 9.96181 21.5841 10.1497 21.5838C10.5283 21.5805 10.8908 21.4364 11.1606 21.1817L12.1715 20.2131L14.1933 22.1503L13.1824 23.119C13.0486 23.2456 12.9424 23.3964 12.8699 23.5627C12.7974 23.729 12.76 23.9074 12.76 24.0876C12.76 24.2678 12.7974 24.4462 12.8699 24.6125C12.9424 24.7787 13.0486 24.9296 13.1824 25.0562C13.4506 25.3129 13.8142 25.4571 14.1933 25.4571C14.5724 25.4571 14.936 25.3129 15.2042 25.0562L16.2151 24.0876L17.226 25.0562C17.4942 25.3129 17.8578 25.4571 18.2369 25.4571C18.616 25.4571 18.9796 25.3129 19.2478 25.0562C19.3816 24.9296 19.4878 24.7787 19.5603 24.6125C19.6328 24.4462 19.6701 24.2678 19.6701 24.0876C19.6701 23.9074 19.6328 23.729 19.5603 23.5627C19.4878 23.3964 19.3816 23.2456 19.2478 23.119L18.2369 22.1503L20.2587 20.2131L21.2696 21.1817C21.5393 21.4364 21.9018 21.5805 22.2805 21.5838C22.5632 21.5836 22.8396 21.503 23.0746 21.3524C23.3096 21.2018 23.4927 20.9878 23.6009 20.7375C23.7091 20.4872 23.7374 20.2118 23.6823 19.946C23.6272 19.6803 23.4912 19.4362 23.2914 19.2445L22.2805 18.2759L23.2914 17.3072C23.5441 17.0474 23.6816 16.7037 23.6751 16.3486C23.6686 15.9935 23.5184 15.6547 23.2563 15.4036C22.9942 15.1525 22.6406 15.0086 22.27 15.0023C21.8994 14.9961 21.5408 15.1279 21.2696 15.37L20.2587 16.3386L18.2369 14.4014L19.2478 13.4328C19.5005 13.1729 19.638 12.8293 19.6315 12.4741C19.625 12.119 19.4748 11.7802 19.2127 11.5291C18.9506 11.278 18.597 11.1341 18.2264 11.1279C17.8558 11.1216 17.4972 11.2534 17.226 11.4955L16.2151 12.4641L15.2042 11.4955C14.933 11.2534 14.5743 11.1216 14.2037 11.1279C13.8331 11.1341 13.4795 11.278 13.2174 11.5291C12.9553 11.7802 12.8052 12.119 12.7987 12.4741C12.7921 12.8293 12.9297 13.1729 13.1824 13.4328L14.1933 14.4014L12.1715 16.3386L11.1606 15.37C10.8894 15.1279 10.5307 14.9961 10.1601 15.0023C9.78954 15.0086 9.43594 15.1525 9.17384 15.4036C8.91175 15.6547 8.76162 15.9935 8.75508 16.3486C8.74854 16.7037 8.8861 17.0474 9.13879 17.3072L10.1497 18.2759L9.13879 19.2445C9.005 19.3711 8.89877 19.522 8.82627 19.6882C8.75377 19.8545 8.71644 20.0329 8.71644 20.2131C8.71644 20.3933 8.75377 20.5717 8.82627 20.738C8.89877 20.9043 9.005 21.0551 9.13879 21.1817ZM16.2151 16.3386L18.2369 18.2759L16.2151 20.2131L14.1933 18.2759L16.2151 16.3386Z"/>
<path d="M33.3813 38.3793C32.2016 38.3762 31.0373 38.6353 29.9798 39.1362C28.9223 39.637 28.0004 40.366 27.2865 41.2659C26.5727 42.1658 26.0864 43.212 25.8657 44.3224C25.6451 45.4328 25.6962 46.577 26.015 47.6653C26.3338 48.7536 26.9116 49.7561 27.7031 50.5943C28.4946 51.4325 29.4781 52.0834 30.5764 52.4958C31.6747 52.9083 32.8579 53.0711 34.0329 52.9715C35.208 52.8719 36.3429 52.5126 37.3486 51.9217L37.5012 51.8303C38.568 51.1721 39.4466 50.2694 40.0575 49.2038C40.6684 48.1382 40.9923 46.9435 40.9999 45.7277C41.0074 44.512 40.6985 43.3136 40.1009 42.2411C39.5033 41.1686 38.636 40.2559 37.5775 39.5855C37.5024 39.5332 37.4226 39.4873 37.3391 39.4484C36.1468 38.7517 34.7778 38.3819 33.3813 38.3793ZM28.6129 45.6897C28.6129 44.4779 29.1153 43.3158 30.0095 42.4589C30.9038 41.6021 32.1166 41.1207 33.3813 41.1207C33.6082 41.128 33.8344 41.1493 34.0584 41.1847C33.0082 42.4707 32.4375 44.0567 32.4375 45.6897C32.4375 47.3226 33.0082 48.9086 34.0584 50.1947C33.8344 50.23 33.6082 50.2513 33.3813 50.2586C32.1166 50.2586 30.9038 49.7772 30.0095 48.9204C29.1153 48.0636 28.6129 46.9014 28.6129 45.6897ZM36.7192 48.9428C36.2693 48.5177 35.9122 48.0112 35.6684 47.4528C35.4246 46.8943 35.299 46.295 35.299 45.6897C35.299 45.0843 35.4246 44.485 35.6684 43.9265C35.9122 43.3681 36.2693 42.8616 36.7192 42.4366C37.169 42.8616 37.5262 43.3681 37.77 43.9265C38.0137 44.485 38.1393 45.0843 38.1393 45.6897C38.1393 46.295 38.0137 46.8943 37.77 47.4528C37.5262 48.0112 37.169 48.5177 36.7192 48.9428Z"/>
</mask>
<path d="M6.24914 32.6681C6.24914 32.6681 6.29683 32.7412 6.33498 32.7686C10.3214 36.3141 12.162 38.3702 13.2778 41.5867C12.9126 41.6032 12.5681 41.7539 12.3159 42.0074C12.0636 42.261 11.9231 42.598 11.9235 42.9483V48.8879C11.9235 49.9785 12.3757 51.0244 13.1805 51.7956C13.9853 52.5668 15.0769 53 16.2151 53C17.3533 53 18.4448 52.5668 19.2497 51.7956C20.0545 51.0244 20.5066 49.9785 20.5066 48.8879V42.9483C20.507 42.598 20.3665 42.261 20.1143 42.0074C19.8621 41.7539 19.5176 41.6032 19.1524 41.5867C20.2682 38.3702 22.1088 36.3141 26.0952 32.7686C26.0952 32.7686 26.0952 32.6955 26.181 32.6681C28.1964 30.8077 29.791 28.57 30.8656 26.0941C31.9402 23.6182 32.4719 20.957 32.4276 18.2759C32.4276 8.22414 25.151 0 16.2151 0C7.27912 0 0.00255224 8.22414 0.00255224 18.2759C-0.0417028 20.957 0.489992 23.6182 1.5646 26.0941C2.6392 28.57 4.23375 30.8077 6.24914 32.6681ZM17.6456 48.8879C17.6456 49.2515 17.4949 49.6001 17.2266 49.8572C16.9583 50.1142 16.5945 50.2586 16.2151 50.2586C15.8357 50.2586 15.4718 50.1142 15.2036 49.8572C14.9353 49.6001 14.7846 49.2515 14.7846 48.8879V44.319H17.6456V48.8879ZM16.2151 41.4131C15.672 39.5837 14.8077 37.8563 13.6592 36.305C14.5017 36.4608 15.3571 36.5434 16.2151 36.5517C17.0731 36.5434 17.9285 36.4608 18.7709 36.305C17.6225 37.8563 16.7582 39.5837 16.2151 41.4131ZM16.2151 2.74138C23.5775 2.74138 29.5666 9.71362 29.5666 18.2759C29.5666 26.8381 23.5775 33.8103 16.2151 33.8103C8.85269 33.8103 2.86359 26.8381 2.86359 18.2759C2.86359 9.71362 8.85269 2.74138 16.2151 2.74138Z" fill="#1A1A1A"/>
<path d="M9.13879 21.1817C9.27118 21.3094 9.4287 21.4107 9.60222 21.4798C9.77573 21.5488 9.96181 21.5841 10.1497 21.5838C10.5283 21.5805 10.8908 21.4364 11.1606 21.1817L12.1715 20.2131L14.1933 22.1503L13.1824 23.119C13.0486 23.2456 12.9424 23.3964 12.8699 23.5627C12.7974 23.729 12.76 23.9074 12.76 24.0876C12.76 24.2678 12.7974 24.4462 12.8699 24.6125C12.9424 24.7787 13.0486 24.9296 13.1824 25.0562C13.4506 25.3129 13.8142 25.4571 14.1933 25.4571C14.5724 25.4571 14.936 25.3129 15.2042 25.0562L16.2151 24.0876L17.226 25.0562C17.4942 25.3129 17.8578 25.4571 18.2369 25.4571C18.616 25.4571 18.9796 25.3129 19.2478 25.0562C19.3816 24.9296 19.4878 24.7787 19.5603 24.6125C19.6328 24.4462 19.6701 24.2678 19.6701 24.0876C19.6701 23.9074 19.6328 23.729 19.5603 23.5627C19.4878 23.3964 19.3816 23.2456 19.2478 23.119L18.2369 22.1503L20.2587 20.2131L21.2696 21.1817C21.5393 21.4364 21.9018 21.5805 22.2805 21.5838C22.5632 21.5836 22.8396 21.503 23.0746 21.3524C23.3096 21.2018 23.4927 20.9878 23.6009 20.7375C23.7091 20.4872 23.7374 20.2118 23.6823 19.946C23.6272 19.6803 23.4912 19.4362 23.2914 19.2445L22.2805 18.2759L23.2914 17.3072C23.5441 17.0474 23.6816 16.7037 23.6751 16.3486C23.6686 15.9935 23.5184 15.6547 23.2563 15.4036C22.9942 15.1525 22.6406 15.0086 22.27 15.0023C21.8994 14.9961 21.5408 15.1279 21.2696 15.37L20.2587 16.3386L18.2369 14.4014L19.2478 13.4328C19.5005 13.1729 19.638 12.8293 19.6315 12.4741C19.625 12.119 19.4748 11.7802 19.2127 11.5291C18.9506 11.278 18.597 11.1341 18.2264 11.1279C17.8558 11.1216 17.4972 11.2534 17.226 11.4955L16.2151 12.4641L15.2042 11.4955C14.933 11.2534 14.5743 11.1216 14.2037 11.1279C13.8331 11.1341 13.4795 11.278 13.2174 11.5291C12.9553 11.7802 12.8052 12.119 12.7987 12.4741C12.7921 12.8293 12.9297 13.1729 13.1824 13.4328L14.1933 14.4014L12.1715 16.3386L11.1606 15.37C10.8894 15.1279 10.5307 14.9961 10.1601 15.0023C9.78954 15.0086 9.43594 15.1525 9.17384 15.4036C8.91175 15.6547 8.76162 15.9935 8.75508 16.3486C8.74854 16.7037 8.8861 17.0474 9.13879 17.3072L10.1497 18.2759L9.13879 19.2445C9.005 19.3711 8.89877 19.522 8.82627 19.6882C8.75377 19.8545 8.71644 20.0329 8.71644 20.2131C8.71644 20.3933 8.75377 20.5717 8.82627 20.738C8.89877 20.9043 9.005 21.0551 9.13879 21.1817ZM16.2151 16.3386L18.2369 18.2759L16.2151 20.2131L14.1933 18.2759L16.2151 16.3386Z" fill="#1A1A1A"/>
<path d="M33.3813 38.3793C32.2016 38.3762 31.0373 38.6353 29.9798 39.1362C28.9223 39.637 28.0004 40.366 27.2865 41.2659C26.5727 42.1658 26.0864 43.212 25.8657 44.3224C25.6451 45.4328 25.6962 46.577 26.015 47.6653C26.3338 48.7536 26.9116 49.7561 27.7031 50.5943C28.4946 51.4325 29.4781 52.0834 30.5764 52.4958C31.6747 52.9083 32.8579 53.0711 34.0329 52.9715C35.208 52.8719 36.3429 52.5126 37.3486 51.9217L37.5012 51.8303C38.568 51.1721 39.4466 50.2694 40.0575 49.2038C40.6684 48.1382 40.9923 46.9435 40.9999 45.7277C41.0074 44.512 40.6985 43.3136 40.1009 42.2411C39.5033 41.1686 38.636 40.2559 37.5775 39.5855C37.5024 39.5332 37.4226 39.4873 37.3391 39.4484C36.1468 38.7517 34.7778 38.3819 33.3813 38.3793ZM28.6129 45.6897C28.6129 44.4779 29.1153 43.3158 30.0095 42.4589C30.9038 41.6021 32.1166 41.1207 33.3813 41.1207C33.6082 41.128 33.8344 41.1493 34.0584 41.1847C33.0082 42.4707 32.4375 44.0567 32.4375 45.6897C32.4375 47.3226 33.0082 48.9086 34.0584 50.1947C33.8344 50.23 33.6082 50.2513 33.3813 50.2586C32.1166 50.2586 30.9038 49.7772 30.0095 48.9204C29.1153 48.0636 28.6129 46.9014 28.6129 45.6897ZM36.7192 48.9428C36.2693 48.5177 35.9122 48.0112 35.6684 47.4528C35.4246 46.8943 35.299 46.295 35.299 45.6897C35.299 45.0843 35.4246 44.485 35.6684 43.9265C35.9122 43.3681 36.2693 42.8616 36.7192 42.4366C37.169 42.8616 37.5262 43.3681 37.77 43.9265C38.0137 44.485 38.1393 45.0843 38.1393 45.6897C38.1393 46.295 38.0137 46.8943 37.77 47.4528C37.5262 48.0112 37.169 48.5177 36.7192 48.9428Z" fill="#1A1A1A"/>
<path d="M6.24914 32.6681C6.24914 32.6681 6.29683 32.7412 6.33498 32.7686C10.3214 36.3141 12.162 38.3702 13.2778 41.5867C12.9126 41.6032 12.5681 41.7539 12.3159 42.0074C12.0636 42.261 11.9231 42.598 11.9235 42.9483V48.8879C11.9235 49.9785 12.3757 51.0244 13.1805 51.7956C13.9853 52.5668 15.0769 53 16.2151 53C17.3533 53 18.4448 52.5668 19.2497 51.7956C20.0545 51.0244 20.5066 49.9785 20.5066 48.8879V42.9483C20.507 42.598 20.3665 42.261 20.1143 42.0074C19.8621 41.7539 19.5176 41.6032 19.1524 41.5867C20.2682 38.3702 22.1088 36.3141 26.0952 32.7686C26.0952 32.7686 26.0952 32.6955 26.181 32.6681C28.1964 30.8077 29.791 28.57 30.8656 26.0941C31.9402 23.6182 32.4719 20.957 32.4276 18.2759C32.4276 8.22414 25.151 0 16.2151 0C7.27912 0 0.00255224 8.22414 0.00255224 18.2759C-0.0417028 20.957 0.489992 23.6182 1.5646 26.0941C2.6392 28.57 4.23375 30.8077 6.24914 32.6681ZM17.6456 48.8879C17.6456 49.2515 17.4949 49.6001 17.2266 49.8572C16.9583 50.1142 16.5945 50.2586 16.2151 50.2586C15.8357 50.2586 15.4718 50.1142 15.2036 49.8572C14.9353 49.6001 14.7846 49.2515 14.7846 48.8879V44.319H17.6456V48.8879ZM16.2151 41.4131C15.672 39.5837 14.8077 37.8563 13.6592 36.305C14.5017 36.4608 15.3571 36.5434 16.2151 36.5517C17.0731 36.5434 17.9285 36.4608 18.7709 36.305C17.6225 37.8563 16.7582 39.5837 16.2151 41.4131ZM16.2151 2.74138C23.5775 2.74138 29.5666 9.71362 29.5666 18.2759C29.5666 26.8381 23.5775 33.8103 16.2151 33.8103C8.85269 33.8103 2.86359 26.8381 2.86359 18.2759C2.86359 9.71362 8.85269 2.74138 16.2151 2.74138Z" stroke="#F9F9F9" stroke-width="0.8" mask="url(#path-1-inside-1)"/>
<path d="M9.13879 21.1817C9.27118 21.3094 9.4287 21.4107 9.60222 21.4798C9.77573 21.5488 9.96181 21.5841 10.1497 21.5838C10.5283 21.5805 10.8908 21.4364 11.1606 21.1817L12.1715 20.2131L14.1933 22.1503L13.1824 23.119C13.0486 23.2456 12.9424 23.3964 12.8699 23.5627C12.7974 23.729 12.76 23.9074 12.76 24.0876C12.76 24.2678 12.7974 24.4462 12.8699 24.6125C12.9424 24.7787 13.0486 24.9296 13.1824 25.0562C13.4506 25.3129 13.8142 25.4571 14.1933 25.4571C14.5724 25.4571 14.936 25.3129 15.2042 25.0562L16.2151 24.0876L17.226 25.0562C17.4942 25.3129 17.8578 25.4571 18.2369 25.4571C18.616 25.4571 18.9796 25.3129 19.2478 25.0562C19.3816 24.9296 19.4878 24.7787 19.5603 24.6125C19.6328 24.4462 19.6701 24.2678 19.6701 24.0876C19.6701 23.9074 19.6328 23.729 19.5603 23.5627C19.4878 23.3964 19.3816 23.2456 19.2478 23.119L18.2369 22.1503L20.2587 20.2131L21.2696 21.1817C21.5393 21.4364 21.9018 21.5805 22.2805 21.5838C22.5632 21.5836 22.8396 21.503 23.0746 21.3524C23.3096 21.2018 23.4927 20.9878 23.6009 20.7375C23.7091 20.4872 23.7374 20.2118 23.6823 19.946C23.6272 19.6803 23.4912 19.4362 23.2914 19.2445L22.2805 18.2759L23.2914 17.3072C23.5441 17.0474 23.6816 16.7037 23.6751 16.3486C23.6686 15.9935 23.5184 15.6547 23.2563 15.4036C22.9942 15.1525 22.6406 15.0086 22.27 15.0023C21.8994 14.9961 21.5408 15.1279 21.2696 15.37L20.2587 16.3386L18.2369 14.4014L19.2478 13.4328C19.5005 13.1729 19.638 12.8293 19.6315 12.4741C19.625 12.119 19.4748 11.7802 19.2127 11.5291C18.9506 11.278 18.597 11.1341 18.2264 11.1279C17.8558 11.1216 17.4972 11.2534 17.226 11.4955L16.2151 12.4641L15.2042 11.4955C14.933 11.2534 14.5743 11.1216 14.2037 11.1279C13.8331 11.1341 13.4795 11.278 13.2174 11.5291C12.9553 11.7802 12.8052 12.119 12.7987 12.4741C12.7921 12.8293 12.9297 13.1729 13.1824 13.4328L14.1933 14.4014L12.1715 16.3386L11.1606 15.37C10.8894 15.1279 10.5307 14.9961 10.1601 15.0023C9.78954 15.0086 9.43594 15.1525 9.17384 15.4036C8.91175 15.6547 8.76162 15.9935 8.75508 16.3486C8.74854 16.7037 8.8861 17.0474 9.13879 17.3072L10.1497 18.2759L9.13879 19.2445C9.005 19.3711 8.89877 19.522 8.82627 19.6882C8.75377 19.8545 8.71644 20.0329 8.71644 20.2131C8.71644 20.3933 8.75377 20.5717 8.82627 20.738C8.89877 20.9043 9.005 21.0551 9.13879 21.1817ZM16.2151 16.3386L18.2369 18.2759L16.2151 20.2131L14.1933 18.2759L16.2151 16.3386Z" stroke="#F9F9F9" stroke-width="0.8" mask="url(#path-1-inside-1)"/>
<path d="M33.3813 38.3793C32.2016 38.3762 31.0373 38.6353 29.9798 39.1362C28.9223 39.637 28.0004 40.366 27.2865 41.2659C26.5727 42.1658 26.0864 43.212 25.8657 44.3224C25.6451 45.4328 25.6962 46.577 26.015 47.6653C26.3338 48.7536 26.9116 49.7561 27.7031 50.5943C28.4946 51.4325 29.4781 52.0834 30.5764 52.4958C31.6747 52.9083 32.8579 53.0711 34.0329 52.9715C35.208 52.8719 36.3429 52.5126 37.3486 51.9217L37.5012 51.8303C38.568 51.1721 39.4466 50.2694 40.0575 49.2038C40.6684 48.1382 40.9923 46.9435 40.9999 45.7277C41.0074 44.512 40.6985 43.3136 40.1009 42.2411C39.5033 41.1686 38.636 40.2559 37.5775 39.5855C37.5024 39.5332 37.4226 39.4873 37.3391 39.4484C36.1468 38.7517 34.7778 38.3819 33.3813 38.3793ZM28.6129 45.6897C28.6129 44.4779 29.1153 43.3158 30.0095 42.4589C30.9038 41.6021 32.1166 41.1207 33.3813 41.1207C33.6082 41.128 33.8344 41.1493 34.0584 41.1847C33.0082 42.4707 32.4375 44.0567 32.4375 45.6897C32.4375 47.3226 33.0082 48.9086 34.0584 50.1947C33.8344 50.23 33.6082 50.2513 33.3813 50.2586C32.1166 50.2586 30.9038 49.7772 30.0095 48.9204C29.1153 48.0636 28.6129 46.9014 28.6129 45.6897ZM36.7192 48.9428C36.2693 48.5177 35.9122 48.0112 35.6684 47.4528C35.4246 46.8943 35.299 46.295 35.299 45.6897C35.299 45.0843 35.4246 44.485 35.6684 43.9265C35.9122 43.3681 36.2693 42.8616 36.7192 42.4366C37.169 42.8616 37.5262 43.3681 37.77 43.9265C38.0137 44.485 38.1393 45.0843 38.1393 45.6897C38.1393 46.295 38.0137 46.8943 37.77 47.4528C37.5262 48.0112 37.169 48.5177 36.7192 48.9428Z" stroke="#F9F9F9" stroke-width="0.8" mask="url(#path-1-inside-1)"/>
</svg>
