<svg width="49" height="46" viewBox="0 0 49 46" fill="none" xmlns="http://www.w3.org/2000/svg">
<path d="M39.321 23.8288V24.0788H39.571H48.2787C48.5 24.0788 48.6985 24.2764 48.6985 24.5023V26.4707C48.6985 26.6965 48.5 26.8941 48.2787 26.8941H46.2177H45.9677V27.1441V42.6847V42.9347H46.2177H48.3302C48.5515 42.9347 48.75 43.1323 48.75 43.3581V45.3266C48.75 45.5524 48.5515 45.75 48.3302 45.75H0.669821C0.448482 45.75 0.25 45.5524 0.25 45.3266V43.3581C0.25 43.1323 0.448482 42.9347 0.669821 42.9347H2.78233H3.03233V42.6847V27.1441V26.8941H2.78233H0.669821C0.448481 26.8941 0.25 26.6965 0.25 26.4707V24.5023C0.25 24.2764 0.448482 24.0788 0.669821 24.0788H9.3775H9.6275V23.8288V0.673424C9.6275 0.447616 9.82598 0.25 10.0473 0.25H38.9012C39.1225 0.25 39.321 0.447617 39.321 0.673424V23.8288ZM16.3772 27.1441V26.8941H16.1272H12.6751H12.4251V27.1441V42.6847V42.9347H12.6751H16.1272H16.3772V42.6847V27.1441ZM19.4248 26.8941H19.1748V27.1441V42.6847V42.9347H19.4248H22.877H23.127V42.6847V27.1441V26.8941H22.877H19.4248ZM26.123 26.8941H25.873V27.1441V42.6847V42.9347H26.123H29.5752H29.8252V42.6847V27.1441V26.8941H29.5752H26.123ZM32.8212 26.8941H32.5712V27.1441V42.6847V42.9347H32.8212H36.2734H36.5234V42.6847V27.1441V26.8941H36.2734H32.8212ZM36.3249 24.1306H36.5749V23.8806V3.31532V3.06532H36.3249H25.5563H25.3063V3.31532V23.8806V24.1306H25.5563H36.3249ZM12.6236 3.06532H12.3736V3.31532V23.8288V24.0788H12.6236H23.3922H23.6422V23.8288V3.31532V3.06532H23.3922H12.6236ZM6.02839 26.8941H5.77839V27.1441V42.6847V42.9347H6.02839H9.48055H9.73055V42.6847V27.1441V26.8941H9.48055H6.02839ZM42.9201 42.9347H43.1701V42.6847V27.1441V26.8941H42.9201H39.4679H39.2179V27.1441V42.6847V42.9347H39.4679H42.9201ZM16.4137 5.83271L16.4137 5.83267L16.41 5.83652L15.227 7.0776C15.1359 7.16815 15.0053 7.20946 14.8391 7.20946C14.6719 7.20946 14.5408 7.16764 14.4496 7.07595C14.2374 6.86266 14.2374 6.55401 14.4496 6.34072L15.6862 5.09747C15.8976 4.88493 16.2023 4.88493 16.4137 5.09747C16.6259 5.31076 16.6259 5.61942 16.4137 5.83271ZM18.8807 6.0299C19.0921 5.81736 19.3968 5.81736 19.6082 6.0299C19.6794 6.10147 19.7302 6.22746 19.7353 6.38611C19.74 6.53431 19.7034 6.6798 19.6405 6.7845L16.1046 10.3395C16.0134 10.4312 15.8823 10.473 15.715 10.473C15.5478 10.473 15.4167 10.4312 15.3255 10.3395C15.1134 10.1262 15.1134 9.81752 15.3255 9.60423L18.8807 6.0299Z" fill="#1A1A1A" stroke="#F9F9F9" stroke-width="0.5"/>
</svg>
