<svg width="83" height="83" viewBox="0 0 83 83" fill="none" xmlns="http://www.w3.org/2000/svg">
<path d="M61.887 41.2416C61.887 41.2416 66.8331 39.306 66.8331 33.3925C66.8331 23.2851 54.8981 23.4999 54.8981 23.4999L37.5867 23.6075L37.6224 35.7791H28.8416V23.0373H16.0047V60.3062H28.8412V47.4572H37.6566L37.6942 60.1659L57.5848 60.1117C57.5848 60.1117 69.2625 60.3806 69.2625 50.9721C69.2621 43.0158 61.887 41.2416 61.887 41.2416ZM52.4273 32.0926C54.3218 32.0926 55.0203 33.4741 55.0478 35.2773C55.0478 36.7296 53.6768 37.9381 52.5078 37.9381C51.0205 37.9381 48.7186 37.9783 48.7186 37.9783L48.6765 32.0539C48.6765 32.0539 50.9257 32.0926 52.4273 32.0926ZM53.0035 51.6397C51.3237 51.6397 48.7239 51.6853 48.7239 51.6853L48.6765 44.995C48.6765 44.995 51.2165 45.0383 52.9125 45.0383C55.0519 45.0383 55.8407 46.5981 55.8715 48.6352C55.8715 50.2748 54.3233 51.6397 53.0035 51.6397Z" fill="#ABD037"/>
<path d="M82.1571 33.1386C81.6117 30.473 80.7978 27.8513 79.7378 25.3459C78.6974 22.8864 77.4103 20.5142 75.9111 18.2957C74.4268 16.0984 72.7222 14.0327 70.8446 12.1554C68.9673 10.2778 66.9016 8.57352 64.7042 7.08893C62.4858 5.59005 60.1136 4.30256 57.6541 3.26218C55.149 2.20262 52.527 1.38867 49.8614 0.842909C47.1273 0.283603 44.3142 0 41.5 0C38.6858 0 35.8723 0.283603 33.1386 0.842909C30.473 1.3883 27.8513 2.20225 25.3459 3.26218C22.8864 4.30256 20.5145 5.58968 18.2957 7.08893C16.0988 8.57315 14.0327 10.2778 12.155 12.1554C10.2778 14.0327 8.57315 16.0984 7.08893 18.2957C5.59005 20.5142 4.30256 22.8864 3.26218 25.3459C2.20262 27.8513 1.38867 30.473 0.843285 33.1386C0.283603 35.8727 0 38.6858 0 41.5C0 44.3142 0.283603 47.1277 0.843285 49.8614C1.38867 52.527 2.20262 55.149 3.26218 57.6541C4.30256 60.1136 5.58968 62.4858 7.08893 64.7043C8.57315 66.9016 10.2778 68.9673 12.155 70.8446C14.0327 72.7222 16.0984 74.4265 18.2957 75.9111C20.5142 77.4099 22.8864 78.6974 25.3459 79.7378C27.8513 80.7974 30.473 81.6113 33.1386 82.1571C35.8727 82.7164 38.6858 83 41.5 83C44.3142 83 47.1277 82.7164 49.8614 82.1571C52.527 81.6117 55.149 80.7978 57.6541 79.7378C60.1136 78.6974 62.4858 77.4103 64.7042 75.9111C66.9016 74.4269 68.9673 72.7222 70.8446 70.8446C72.7222 68.9673 74.4265 66.9016 75.9111 64.7043C77.4099 62.4858 78.6974 60.1136 79.7378 57.6541C80.7974 55.149 81.6113 52.527 82.1571 49.8614C82.7164 47.1273 83 44.3142 83 41.5C83 38.6858 82.7168 35.8723 82.1571 33.1386ZM41.5004 78.9675C20.8406 78.9675 4.0325 62.1597 4.0325 41.5C4.0325 20.8403 20.8406 4.0325 41.5004 4.0325C62.1601 4.0325 78.9679 20.8406 78.9679 41.5C78.9679 62.1601 62.1597 78.9675 41.5004 78.9675Z" fill="#ABD037"/>
</svg>
